# xmcd
#
# Track frame offsets:
#	150
#	22490
#	58454
#	87573
#	125845
#	156322
#	185133
#	219640
#	259685
#
# Disc length: 4093 seconds
#
# Revision: 1
# Processed by: cddbd v1.5.2PL0 Copyright (c) Steve Scherf et al.
# Submitted via: audiograbber 1.83.01
#
DISCID=970ffb09
DTITLE=Grateful Dead - 95-02-21 Delta Centre, Salt Lake City UT
DYEAR=1900
DGENRE=
TTITLE0=Salt Lake City
TTITLE1=Friend Of The Devil
TTITLE2=Wang Dang Doodle
TTITLE3=Tennessee Jed
TTITLE4=Broken Arrow
TTITLE5=Black Throated Wind
TTITLE6=So Many Roads
TTITLE7=The Music Never Stopped
TTITLE8=Foolish Heart
EXTD=
EXTT0=
EXTT1=
EXTT2=
EXTT3=
EXTT4=
EXTT5=
EXTT6=
EXTT7=
EXTT8=
PLAYORDER=
